<svg xmlns="http://www.w3.org/2000/svg">
  <symbol viewBox="0 0 24 24" id="phone-icon" fill="none">
    <path d="M8.66375 6H6.1579C6.1579 6 5.80262 8.74333 6.1579 10.4408C6.59925 12.5495 7.10164 13.8516 8.62501 15.375C10.1484 16.8984 11.4505 17.4007 13.5592 17.8421C15.2567 18.1974 18 17.8421 18 17.8421V15.3363C18 14.4754 17.4491 13.7111 16.6325 13.4389L15.5094 13.0645C15.2293 12.9712 14.9209 13.069 14.7459 13.3069C14.1043 14.1787 12.8226 14.2379 12.1034 13.4288L10.6653 11.8109C10.0139 11.0782 10.0561 9.96226 10.7609 9.28078C10.9633 9.08506 11.0355 8.79056 10.9464 8.52344L10.5611 7.36754C10.2889 6.55086 9.52461 6 8.66375 6Z" stroke-width="1.5"/>
  </symbol>
  <symbol viewBox="0 0 24 24" id="search-icon" fill="none">
    <path d="M14.8889 14.9762C15.98 14.0345 16.6667 12.666 16.6667 11.1429C16.6667 8.30254 14.2789 6 11.3333 6C8.38781 6 6 8.30254 6 11.1429C6 13.9832 8.38781 16.2857 11.3333 16.2857C12.6993 16.2857 13.9453 15.7905 14.8889 14.9762ZM14.8889 14.9762L18 18" stroke-width="1.5"/>
  </symbol>
  <symbol viewBox="0 0 24 24" id="wishlist-icon" fill="none">
    <path d="M17.9205 7.06089C17.5784 6.72455 17.1722 6.45775 16.7252 6.27572C16.2782 6.09369 15.799 6 15.3151 6C14.8312 6 14.3521 6.09369 13.905 6.27572C13.458 6.45775 13.0518 6.72455 12.7098 7.06089L11.9998 7.75857L11.2899 7.06089C10.5989 6.38184 9.66172 6.00035 8.68453 6.00035C7.70733 6.00035 6.77016 6.38184 6.07917 7.06089C5.38819 7.73994 5 8.66092 5 9.62124C5 10.5816 5.38819 11.5026 6.07917 12.1816L6.78911 12.8793L11.9998 18L17.2105 12.8793L17.9205 12.1816C18.2627 11.8454 18.5342 11.4463 18.7194 11.007C18.9047 10.5677 19 10.0968 19 9.62124C19 9.14571 18.9047 8.67484 18.7194 8.23552C18.5342 7.79621 18.2627 7.39706 17.9205 7.06089V7.06089Z" stroke-width="1.5"/>
  </symbol>
  <symbol viewBox="0 0 24 24" id="wishlist-catalog-icon">
    <path d="M16.8398 3C15.093 3 13.5616 3.77893 12.4113 5.25262C12.2579 5.44917 12.1212 5.64579 12 5.83623C11.8788 5.64575 11.7421 5.44917 11.5887 5.25262C10.4384 3.77893 8.90701 3 7.16016 3C3.8602 3 1.5 5.7631 1.5 9.07868C1.5 12.8699 4.60722 16.4429 11.575 20.664C11.7056 20.7431 11.8528 20.7827 12 20.7827C12.1472 20.7827 12.2944 20.7431 12.425 20.664C19.3928 16.443 22.5 12.8699 22.5 9.07872C22.5 5.76486 20.1417 3 16.8398 3Z"/>
  </symbol>
  <symbol viewBox="0 0 24 24" id="basket-icon" fill="none">
    <path d="M8.46667 9.33333H6C5.44772 9.33333 5 9.78105 5 10.3333V17C5 17.5523 5.44772 18 6 18H17C17.5523 18 18 17.5523 18 17V10.3333C18 9.78105 17.5523 9.33333 17 9.33333H14.5333M8.46667 9.33333V12.3667M8.46667 9.33333H14.5333M8.46667 9.33333V8.03333C8.46667 6.35807 9.82474 5 11.5 5V5C13.1753 5 14.5333 6.35807 14.5333 8.03333V9.33333M14.5333 12.3667V9.33333" stroke-width="1.5"/>
  </symbol>
  <symbol viewBox="0 0 24 24" id="profile-icon">
    <path fill-rule="evenodd" clip-rule="evenodd" d="M9.25023 9.40069C9.25023 7.92539 10.4695 6.70837 11.9998 6.70837C13.5301 6.70837 14.7494 7.92539 14.7494 9.40069C14.7494 10.876 13.5301 12.093 11.9998 12.093C10.4695 12.093 9.25023 10.876 9.25023 9.40069ZM11.9998 5.20837C9.66456 5.20837 7.75023 7.07371 7.75023 9.40069C7.75023 11.7277 9.66456 13.593 11.9998 13.593C14.3351 13.593 16.2494 11.7277 16.2494 9.40069C16.2494 7.07371 14.3351 5.20837 11.9998 5.20837ZM8.375 18.6657C8.375 17.1787 9.58039 15.9734 11.0673 15.9734H12.9317C14.4186 15.9734 15.624 17.1787 15.624 18.6657H17.124C17.124 16.3503 15.247 14.4734 12.9317 14.4734H11.0673C8.75196 14.4734 6.875 16.3503 6.875 18.6657H8.375Z"/>
  </symbol>
  <symbol viewBox="0 0 16 16" id="phone-footer-icon">
    <path d="M5.95133 7.47489C6.68115 8.75704 7.74296 9.81885 9.02511 10.5487L9.71267 9.58578C9.82323 9.43095 9.98672 9.32202 10.1722 9.27959C10.3576 9.23717 10.5522 9.26419 10.7191 9.35556C11.8191 9.95672 13.0339 10.3183 14.2837 10.4164C14.4787 10.4319 14.6608 10.5203 14.7935 10.664C14.9263 10.8077 15 10.9962 15 11.1919V14.6623C15 14.8549 14.9286 15.0406 14.7996 15.1836C14.6706 15.3266 14.4931 15.4166 14.3016 15.4362C13.8893 15.479 13.474 15.5 13.0556 15.5C6.39778 15.5 1 10.1022 1 3.44444C1 3.026 1.021 2.61067 1.06378 2.19844C1.08342 2.00688 1.17343 1.82941 1.31639 1.70038C1.45935 1.57136 1.64509 1.49996 1.83767 1.5H5.30811C5.50377 1.49998 5.69225 1.5737 5.83597 1.70646C5.9797 1.83923 6.0681 2.02128 6.08356 2.21633C6.18173 3.46606 6.54328 4.68086 7.14444 5.78089C7.23581 5.94777 7.26283 6.14235 7.22041 6.32782C7.17798 6.51328 7.06905 6.67677 6.91422 6.78733L5.95133 7.47489ZM3.98978 6.96389L5.46756 5.90844C5.04816 5.00318 4.76083 4.04243 4.61433 3.05556H2.56333C2.55867 3.18467 2.55633 3.31456 2.55633 3.44444C2.55556 9.24356 7.25644 13.9444 13.0556 13.9444C13.1854 13.9444 13.3153 13.9421 13.4444 13.9367V11.8857C12.4576 11.7392 11.4968 11.4518 10.5916 11.0324L9.53611 12.5102C9.11118 12.3451 8.69845 12.1502 8.301 11.9269L8.25589 11.9012C6.73034 11.033 5.467 9.76966 4.59878 8.24411L4.57311 8.199C4.34982 7.80155 4.15489 7.38882 3.98978 6.96389Z"/>
  </symbol>
  <symbol viewBox="0 0 16 16" id="mail-icon">
    <path d="M2.00065 2.5H14.0007C14.1775 2.5 14.347 2.57024 14.4721 2.69526C14.5971 2.82029 14.6673 2.98986 14.6673 3.16667V13.8333C14.6673 14.0101 14.5971 14.1797 14.4721 14.3047C14.347 14.4298 14.1775 14.5 14.0007 14.5H2.00065C1.82384 14.5 1.65427 14.4298 1.52925 14.3047C1.40422 14.1797 1.33398 14.0101 1.33398 13.8333V3.16667C1.33398 2.98986 1.40422 2.82029 1.52925 2.69526C1.65427 2.57024 1.82384 2.5 2.00065 2.5ZM13.334 5.32533L8.04865 10.0587L2.66732 5.31067V13.1667H13.334V5.32533ZM3.00798 3.83333L8.04132 8.27467L13.002 3.83333H3.00798Z"/>
  </symbol>
  <symbol viewBox="0 0 16 16" id="clock-icon">
    <path d="M8 1.5C4.1402 1.5 1 4.6402 1 8.5C1 12.3598 4.1402 15.5 8 15.5C11.8598 15.5 15 12.3598 15 8.5C15 4.6402 11.8598 1.5 8 1.5ZM8 14.1C4.9123 14.1 2.4 11.5877 2.4 8.5C2.4 5.4123 4.9123 2.9 8 2.9C11.0877 2.9 13.6 5.4123 13.6 8.5C13.6 11.5877 11.0877 14.1 8 14.1Z"/>
    <path d="M8.125 5.375H6.875V8.75875L8.93313 10.8169L9.81687 9.93312L8.125 8.24125V5.375Z"/>
  </symbol>
  <symbol viewBox="0 0 16 16" id="address-icon">
    <path d="M8.00123 9.33272C9.4719 9.33272 10.6679 8.13672 10.6679 6.66606C10.6679 5.19539 9.4719 3.99939 8.00123 3.99939C6.53056 3.99939 5.33456 5.19539 5.33456 6.66606C5.33456 8.13672 6.53056 9.33272 8.00123 9.33272ZM8.00123 5.33272C8.73656 5.33272 9.33456 5.93072 9.33456 6.66606C9.33456 7.40139 8.73656 7.99939 8.00123 7.99939C7.2659 7.99939 6.6679 7.40139 6.6679 6.66606C6.6679 5.93072 7.2659 5.33272 8.00123 5.33272Z"/>
    <path d="M7.61332 14.5427C7.72932 14.6254 7.86465 14.6667 7.99999 14.6667C8.13532 14.6667 8.27065 14.6254 8.38665 14.5427C8.58932 14.3994 13.3527 10.96 13.3333 6.66671C13.3333 3.72604 10.9407 1.33337 7.99999 1.33337C5.05932 1.33337 2.66665 3.72604 2.66665 6.66337C2.64732 10.96 7.41065 14.3994 7.61332 14.5427ZM7.99999 2.66671C10.206 2.66671 12 4.46071 12 6.67004C12.014 9.62871 9.07465 12.2854 7.99999 13.1567C6.92599 12.2847 3.98599 9.62737 3.99999 6.66671C3.99999 4.46071 5.79399 2.66671 7.99999 2.66671Z"/>
  </symbol>
</svg>
